<mxfile host="app.diagrams.net" modified="2023-07-13T02:41:02.274Z" agent="Mozilla/5.0 (Windows NT 10.0; Win64; x64) AppleWebKit/537.36 (KHTML, like Gecko) Chrome/114.0.0.0 Safari/537.36" etag="_2brC5B_fpCCWhzyQAKz" version="21.5.1" type="github">
  <diagram name="Page-1" id="KcMVhKevGDjmHu-vevIP">
    <mxGraphModel dx="794" dy="477" grid="1" gridSize="10" guides="1" tooltips="1" connect="1" arrows="1" fold="1" page="1" pageScale="1" pageWidth="850" pageHeight="1100" math="0" shadow="0">
      <root>
        <mxCell id="0" />
        <mxCell id="1" parent="0" />
        <mxCell id="MzqtTaXbOYVxBve9-991-1" value="int * p = malloc (1000000);&lt;br&gt;p[0] = 100;&amp;nbsp; &amp;nbsp; &amp;nbsp; &amp;nbsp; &amp;nbsp; &amp;nbsp; &amp;nbsp; &amp;nbsp; &amp;nbsp; &amp;nbsp; &amp;nbsp; &amp;nbsp; &amp;nbsp;" style="text;strokeColor=default;align=center;fillColor=none;html=1;verticalAlign=middle;whiteSpace=wrap;rounded=0;" vertex="1" parent="1">
          <mxGeometry x="40" y="90" width="160" height="110" as="geometry" />
        </mxCell>
        <mxCell id="MzqtTaXbOYVxBve9-991-3" value="" style="endArrow=classic;html=1;rounded=0;" edge="1" parent="1">
          <mxGeometry width="50" height="50" relative="1" as="geometry">
            <mxPoint x="112" y="153" as="sourcePoint" />
            <mxPoint x="360" y="153" as="targetPoint" />
          </mxGeometry>
        </mxCell>
        <mxCell id="MzqtTaXbOYVxBve9-991-4" style="edgeStyle=orthogonalEdgeStyle;rounded=0;orthogonalLoop=1;jettySize=auto;html=1;exitX=0.5;exitY=1;exitDx=0;exitDy=0;" edge="1" parent="1" source="MzqtTaXbOYVxBve9-991-1" target="MzqtTaXbOYVxBve9-991-1">
          <mxGeometry relative="1" as="geometry" />
        </mxCell>
        <mxCell id="MzqtTaXbOYVxBve9-991-6" value="Triggers a MMU page fault hardware exception" style="text;strokeColor=none;align=center;fillColor=none;html=1;verticalAlign=middle;whiteSpace=wrap;rounded=0;" vertex="1" parent="1">
          <mxGeometry x="228" y="76" width="100" height="90" as="geometry" />
        </mxCell>
        <mxCell id="MzqtTaXbOYVxBve9-991-7" value="OS start executing ISR" style="whiteSpace=wrap;html=1;aspect=fixed;" vertex="1" parent="1">
          <mxGeometry x="360" y="91" width="120" height="120" as="geometry" />
        </mxCell>
      </root>
    </mxGraphModel>
  </diagram>
</mxfile>
